<svg width="36" height="36" viewBox="0 0 36 36" fill="none" xmlns="http://www.w3.org/2000/svg">
<path d="M18 0C8.0595 0 0 8.0595 0 18C0 27.9405 8.0595 36 18 36C27.9405 36 36 27.9405 36 18C36 8.0595 27.9405 0 18 0ZM18 33.75C9.3015 33.75 2.25 26.6985 2.25 18C2.25 9.3015 9.3015 2.25 18 2.25C26.6985 2.25 33.75 9.3015 33.75 18C33.75 26.6985 26.6985 33.75 18 33.75Z" fill="black"/>
<path d="M8.41406 19.9844C8.41406 20.25 8.44922 20.4609 8.51953 20.6172C8.58984 20.7656 8.6875 20.8789 8.8125 20.957C8.9375 21.0273 9.07812 21.0742 9.23438 21.0977C9.39844 21.1211 9.57422 21.1328 9.76172 21.1328V22C9.66016 22.0156 9.55469 22.0273 9.44531 22.0352C9.35938 22.043 9.25781 22.0469 9.14062 22.0469C9.02344 22.0547 8.90625 22.0586 8.78906 22.0586C8.67188 22.0586 8.55469 22.0547 8.4375 22.0469C8.32031 22.0391 8.21484 22.0273 8.12109 22.0117C7.85547 21.957 7.64844 21.8398 7.5 21.6602C7.35156 21.4805 7.23828 21.2812 7.16016 21.0625C7.08203 20.8359 7.03125 20.6172 7.00781 20.4062C6.99219 20.1953 6.98438 20.0312 6.98438 19.9141V19.7734V12.8945H8.41406V19.9844ZM13.6031 15.3555C14.0563 15.3555 14.4664 15.4453 14.8336 15.625C15.2008 15.7969 15.5133 16.0352 15.7711 16.3398C16.0289 16.6445 16.2281 17 16.3688 17.4062C16.5094 17.8125 16.5797 18.25 16.5797 18.7188C16.5797 19.1875 16.5055 19.6289 16.357 20.043C16.2086 20.4492 15.9977 20.8047 15.7242 21.1094C15.4586 21.4062 15.1383 21.6406 14.7633 21.8125C14.3961 21.9766 13.9859 22.0586 13.5328 22.0586C13.0719 22.0586 12.65 21.9727 12.2672 21.8008C11.8922 21.6289 11.5719 21.3906 11.3063 21.0859C11.0484 20.7812 10.8492 20.4258 10.7086 20.0195C10.568 19.6133 10.4977 19.1719 10.4977 18.6953C10.4977 18.2188 10.5719 17.7734 10.7203 17.3594C10.8766 16.9453 11.0875 16.5938 11.3531 16.3047C11.6266 16.0078 11.9547 15.7773 12.3375 15.6133C12.7203 15.4414 13.1422 15.3555 13.6031 15.3555ZM13.5094 20.9453C13.7438 20.9453 13.9547 20.8906 14.1422 20.7812C14.3375 20.6641 14.5016 20.5078 14.6344 20.3125C14.775 20.1094 14.8844 19.8711 14.9625 19.5977C15.0484 19.3242 15.0914 19.0312 15.0914 18.7188C15.0914 18.4062 15.0523 18.1133 14.9742 17.8398C14.9039 17.5664 14.8023 17.3281 14.6695 17.125C14.5445 16.9141 14.3883 16.7461 14.2008 16.6211C14.0133 16.4961 13.8023 16.4336 13.568 16.4336C13.3336 16.4336 13.1188 16.4922 12.9234 16.6094C12.7281 16.7266 12.5602 16.8867 12.4195 17.0898C12.2867 17.2852 12.1813 17.5195 12.1031 17.793C12.0328 18.0586 11.9977 18.3477 11.9977 18.6602C11.9977 18.9727 12.0289 19.2695 12.0914 19.5508C12.1617 19.8242 12.2633 20.0625 12.3961 20.2656C12.5289 20.4688 12.6852 20.6328 12.8648 20.7578C13.0523 20.8828 13.2672 20.9453 13.5094 20.9453ZM19.1672 22.8555C19.2453 22.9883 19.343 23.0977 19.4602 23.1836C19.5852 23.2695 19.7102 23.3359 19.8352 23.3828C19.968 23.4297 20.0969 23.4609 20.2219 23.4766C20.3547 23.5 20.4719 23.5117 20.5734 23.5117C21.0578 23.5117 21.4367 23.3711 21.7102 23.0898C21.9836 22.8086 22.1203 22.3281 22.1203 21.6484V21.3438V21.3203L22.132 21.2617C22.132 21.2539 22.1281 21.2461 22.1203 21.2383C22.1203 21.2305 22.1203 21.2227 22.1203 21.2148C22.0969 21.3164 22.0266 21.418 21.9094 21.5195C21.8 21.6211 21.6594 21.7148 21.4875 21.8008C21.3156 21.8789 21.1203 21.9414 20.9016 21.9883C20.6828 22.0352 20.4563 22.0586 20.2219 22.0586C19.7844 22.0586 19.4016 21.9648 19.0734 21.7773C18.7453 21.582 18.4719 21.3242 18.2531 21.0039C18.0344 20.6836 17.8742 20.3164 17.7727 19.9023C17.6711 19.4883 17.6203 19.0547 17.6203 18.6016C17.6203 17.9922 17.7023 17.4805 17.8664 17.0664C18.0383 16.6523 18.2531 16.3164 18.5109 16.0586C18.7766 15.793 19.0695 15.6055 19.3898 15.4961C19.718 15.3867 20.0383 15.332 20.3508 15.332C20.7336 15.332 21.0813 15.3984 21.3938 15.5312C21.7141 15.6641 21.9563 15.8398 22.1203 16.0586L22.2727 15.3906H23.5383L23.5266 22C23.4953 22.4766 23.3977 22.8828 23.2336 23.2188C23.0773 23.5547 22.8742 23.832 22.6242 24.0508C22.3742 24.2695 22.0852 24.4258 21.757 24.5195C21.4289 24.6133 21.0773 24.6602 20.7023 24.6602C20.2648 24.6602 19.8313 24.582 19.4016 24.4258C18.9797 24.2773 18.6281 24.0234 18.3469 23.6641L19.1672 22.8555ZM22.2141 18.6484C22.2141 18.3359 22.175 18.0469 22.0969 17.7812C22.0188 17.5156 21.9133 17.2812 21.7805 17.0781C21.6477 16.875 21.4836 16.7148 21.2883 16.5977C21.093 16.4805 20.882 16.4219 20.6555 16.4219C20.4211 16.4219 20.2063 16.4844 20.0109 16.6094C19.8234 16.7266 19.6633 16.8867 19.5305 17.0898C19.3977 17.293 19.2961 17.5312 19.2258 17.8047C19.1555 18.0781 19.1203 18.3672 19.1203 18.6719C19.1203 18.9844 19.1555 19.2812 19.2258 19.5625C19.3039 19.8359 19.4094 20.0742 19.5422 20.2773C19.6828 20.4805 19.8469 20.6445 20.0344 20.7695C20.2297 20.8867 20.4445 20.9453 20.6789 20.9453C20.9211 20.9453 21.1359 20.8867 21.3234 20.7695C21.5109 20.6445 21.6672 20.4805 21.7922 20.2773C21.925 20.0664 22.0266 19.8203 22.0969 19.5391C22.175 19.2578 22.2141 18.9609 22.2141 18.6484ZM28.1648 15.3555C28.618 15.3555 29.0281 15.4453 29.3953 15.625C29.7625 15.7969 30.075 16.0352 30.3328 16.3398C30.5906 16.6445 30.7898 17 30.9305 17.4062C31.0711 17.8125 31.1414 18.25 31.1414 18.7188C31.1414 19.1875 31.0672 19.6289 30.9188 20.043C30.7703 20.4492 30.5594 20.8047 30.2859 21.1094C30.0203 21.4062 29.7 21.6406 29.325 21.8125C28.9578 21.9766 28.5477 22.0586 28.0945 22.0586C27.6336 22.0586 27.2117 21.9727 26.8289 21.8008C26.4539 21.6289 26.1336 21.3906 25.868 21.0859C25.6102 20.7812 25.4109 20.4258 25.2703 20.0195C25.1297 19.6133 25.0594 19.1719 25.0594 18.6953C25.0594 18.2188 25.1336 17.7734 25.282 17.3594C25.4383 16.9453 25.6492 16.5938 25.9148 16.3047C26.1883 16.0078 26.5164 15.7773 26.8992 15.6133C27.282 15.4414 27.7039 15.3555 28.1648 15.3555ZM28.0711 20.9453C28.3055 20.9453 28.5164 20.8906 28.7039 20.7812C28.8992 20.6641 29.0633 20.5078 29.1961 20.3125C29.3367 20.1094 29.4461 19.8711 29.5242 19.5977C29.6102 19.3242 29.6531 19.0312 29.6531 18.7188C29.6531 18.4062 29.6141 18.1133 29.5359 17.8398C29.4656 17.5664 29.3641 17.3281 29.2313 17.125C29.1063 16.9141 28.95 16.7461 28.7625 16.6211C28.575 16.4961 28.3641 16.4336 28.1297 16.4336C27.8953 16.4336 27.6805 16.4922 27.4852 16.6094C27.2898 16.7266 27.1219 16.8867 26.9813 17.0898C26.8484 17.2852 26.743 17.5195 26.6648 17.793C26.5945 18.0586 26.5594 18.3477 26.5594 18.6602C26.5594 18.9727 26.5906 19.2695 26.6531 19.5508C26.7234 19.8242 26.825 20.0625 26.9578 20.2656C27.0906 20.4688 27.2469 20.6328 27.4266 20.7578C27.6141 20.8828 27.8289 20.9453 28.0711 20.9453Z" fill="black"/>
</svg>
