<?xml version="1.0" encoding="utf-8"?><svg viewBox="0 0 36 36" xmlns="http://www.w3.org/2000/svg" xmlns:xlink="http://www.w3.org/1999/xlink"><style>:root>svg{display:none}:root>svg:target{display:block}</style><svg viewBox="0 0 36 36" id="logo"><path d="M18 0C8.06 0 0 8.06 0 18s8.06 18 18 18 18-8.06 18-18S27.94 0 18 0Zm0 33.75C9.302 33.75 2.25 26.698 2.25 18S9.302 2.25 18 2.25 33.75 9.302 33.75 18 26.698 33.75 18 33.75Z"/><path d="M8.414 19.984c0 .266.035.477.106.633.07.149.168.262.293.34.124.07.265.117.421.14.164.024.34.036.528.036V22a3.967 3.967 0 0 1-.621.047 5.292 5.292 0 0 1-.704 0 3.259 3.259 0 0 1-.316-.035 1.05 1.05 0 0 1-.621-.352 1.975 1.975 0 0 1-.34-.598 3.048 3.048 0 0 1-.152-.656 7.114 7.114 0 0 1-.024-.492v-7.02h1.43v7.09Zm5.19-4.629c.452 0 .862.09 1.23.27.367.172.68.41.937.715.258.305.457.66.598 1.066.14.407.21.844.21 1.313 0 .468-.073.91-.222 1.324-.148.406-.36.762-.633 1.066a2.888 2.888 0 0 1-.96.703 2.983 2.983 0 0 1-1.231.247c-.461 0-.883-.086-1.266-.258a2.814 2.814 0 0 1-.96-.715 3.305 3.305 0 0 1-.598-1.066 4.023 4.023 0 0 1-.211-1.325c0-.476.074-.922.222-1.336.157-.414.367-.765.633-1.054.274-.297.602-.528.985-.692a3.054 3.054 0 0 1 1.265-.258Zm-.095 5.59c.235 0 .446-.054.633-.164.196-.117.36-.273.492-.468.141-.204.25-.442.329-.715.085-.274.128-.567.128-.88 0-.312-.039-.605-.117-.878a2.379 2.379 0 0 0-.305-.715 1.533 1.533 0 0 0-.468-.504 1.115 1.115 0 0 0-.633-.187c-.234 0-.45.058-.645.175a1.636 1.636 0 0 0-.504.48c-.132.196-.238.43-.316.704-.07.266-.105.555-.105.867 0 .313.03.61.093.89.07.274.172.512.305.716.133.203.29.367.469.492.187.125.402.187.644.187Zm5.658 1.91c.078.133.176.243.293.329.125.085.25.152.375.199.133.047.262.078.387.094.133.023.25.035.351.035.485 0 .864-.14 1.137-.422.274-.281.41-.762.41-1.442v-.328l.012-.058c0-.008-.004-.016-.012-.024v-.023c-.023.101-.093.203-.21.305a1.8 1.8 0 0 1-.422.28c-.172.079-.368.141-.586.188-.22.047-.446.07-.68.07-.438 0-.82-.093-1.149-.28a2.584 2.584 0 0 1-.82-.774 3.347 3.347 0 0 1-.48-1.102 5.44 5.44 0 0 1-.153-1.3c0-.61.082-1.122.246-1.536.172-.414.387-.75.645-1.007.266-.266.559-.454.879-.563a3.03 3.03 0 0 1 .96-.164c.384 0 .731.066 1.044.2.32.132.562.308.726.527l.153-.668h1.265L23.527 22c-.032.477-.13.883-.293 1.219-.157.336-.36.613-.61.832-.25.219-.539.375-.867.469-.328.093-.68.14-1.055.14-.437 0-.87-.078-1.3-.234a2.275 2.275 0 0 1-1.055-.762l.82-.809Zm3.047-4.207c0-.312-.039-.601-.117-.867a2.635 2.635 0 0 0-.317-.703 1.518 1.518 0 0 0-.492-.48 1.208 1.208 0 0 0-1.277.011 1.565 1.565 0 0 0-.48.48 2.38 2.38 0 0 0-.305.716 3.47 3.47 0 0 0-.106.867c0 .312.035.61.106.89.078.274.183.512.316.715.14.203.305.367.492.492.196.118.41.176.645.176.242 0 .457-.058.644-.175a1.57 1.57 0 0 0 .47-.493c.132-.21.234-.457.304-.738.078-.281.117-.578.117-.89Zm5.95-3.293c.454 0 .864.09 1.231.27.367.172.68.41.938.715.258.305.457.66.598 1.066.14.407.21.844.21 1.313 0 .468-.074.91-.222 1.324-.149.406-.36.762-.633 1.066a2.888 2.888 0 0 1-.961.703 2.983 2.983 0 0 1-1.23.247c-.461 0-.883-.086-1.266-.258a2.814 2.814 0 0 1-.961-.715 3.307 3.307 0 0 1-.598-1.066 4.023 4.023 0 0 1-.21-1.325c0-.476.074-.922.222-1.336.156-.414.367-.765.633-1.054.273-.297.601-.528.984-.692a3.054 3.054 0 0 1 1.266-.258Zm-.093 5.59c.234 0 .445-.054.633-.164.195-.117.36-.273.492-.468.14-.204.25-.442.328-.715.086-.274.13-.567.13-.88 0-.312-.04-.605-.118-.878a2.378 2.378 0 0 0-.305-.715 1.533 1.533 0 0 0-.469-.504 1.115 1.115 0 0 0-.632-.187c-.235 0-.45.058-.645.175a1.634 1.634 0 0 0-.504.48 2.43 2.43 0 0 0-.316.704c-.07.266-.106.555-.106.867 0 .313.032.61.094.89.07.274.172.512.305.716.133.203.289.367.469.492.187.125.402.187.644.187Z"/></svg></svg>